<svg width="64" height="64" viewBox="0 0 64 64" fill="none" xmlns="http://www.w3.org/2000/svg">
<rect width="64" height="64" rx="12" fill="#FFC40B"/>
<g clip-path="url(#clip0_1_6)">
<path d="M44.4256 34.9237L44.4257 34.9236C45.963 31.8055 46.875 28.8366 46.875 26.25C46.875 22.3049 45.3078 18.5214 42.5182 15.7318C39.7286 12.9422 35.9451 11.375 32 11.375C28.0549 11.375 24.2714 12.9422 21.4818 15.7318C18.6922 18.5214 17.125 22.3049 17.125 26.25C17.125 28.8364 18.034 31.8052 19.5745 34.9239C21.1003 38.0163 23.1619 41.0863 25.2605 43.8324L25.2614 43.8335C27.2523 46.4227 29.3811 48.9028 31.6387 51.2631L32 51.6409L32.3613 51.2631C34.6188 48.9028 36.7477 46.4227 38.7386 43.8335L38.7395 43.8324C40.8381 41.0863 42.8998 38.0162 44.4256 34.9237ZM32 54.3037C31.8932 54.199 31.7632 54.0705 31.6122 53.9196C31.1439 53.4518 30.474 52.7688 29.6696 51.9101C28.0603 50.1922 25.9156 47.7741 23.7721 44.9722C21.6275 42.1689 19.4916 38.991 17.8937 35.7533C16.293 32.5101 15.25 29.2424 15.25 26.25C15.25 21.8076 17.0147 17.5472 20.156 14.406C23.2972 11.2647 27.5576 9.5 32 9.5C36.4424 9.5 40.7028 11.2647 43.844 14.406C46.9853 17.5472 48.75 21.8076 48.75 26.25C48.75 29.2424 47.707 32.5101 46.1063 35.7533C44.5084 38.991 42.3725 42.1689 40.2279 44.9722C38.0844 47.7741 35.9397 50.1922 34.3304 51.9101C33.526 52.7688 32.8561 53.4518 32.3878 53.9196C32.2368 54.0705 32.1068 54.199 32 54.3037Z" fill="black" stroke="black"/>
<path d="M27.5806 30.6694C28.7527 31.8415 30.3424 32.5 32 32.5C33.6576 32.5 35.2473 31.8415 36.4194 30.6694C37.5915 29.4973 38.25 27.9076 38.25 26.25C38.25 24.5924 37.5915 23.0027 36.4194 21.8306C35.2473 20.6585 33.6576 20 32 20C30.3424 20 28.7527 20.6585 27.5806 21.8306C26.4085 23.0027 25.75 24.5924 25.75 26.25C25.75 27.9076 26.4085 29.4973 27.5806 30.6694ZM37.7452 31.9952C36.2215 33.519 34.1549 34.375 32 34.375C29.8451 34.375 27.7785 33.519 26.2548 31.9952C24.731 30.4715 23.875 28.4049 23.875 26.25C23.875 24.0951 24.731 22.0285 26.2548 20.5048C27.7785 18.981 29.8451 18.125 32 18.125C34.1549 18.125 36.2215 18.981 37.7452 20.5048C39.269 22.0285 40.125 24.0951 40.125 26.25C40.125 28.4049 39.269 30.4715 37.7452 31.9952Z" fill="black" stroke="black"/>
</g>
<defs>
<clipPath id="clip0_1_6">
<rect width="46" height="46" fill="white" transform="translate(9 9)"/>
</clipPath>
</defs>
</svg>
